<svg t="1635608020520" class="icon" viewBox="0 0 1024 1024" version="1.1" xmlns="http://www.w3.org/2000/svg" p-id="7601" width="200" height="200"><path d="M462 752.42a29.3 29.3 0 1 1-29.34 29.24A29.28 29.28 0 0 1 462 752.42m459.34-181.14A29.3 29.3 0 1 1 950.72 542a29.28 29.28 0 0 1-29.3 29.26m0-119.82a90.38 90.38 0 0 0-85.8 119.38L536.4 730.12a90.4 90.4 0 0 0-155.58 11.62L112 600c-28.4-14.92-49.66-61.68-47.42-104.26 1.18-22.2 8.84-39.46 20.56-46.12 7.4-4.16 16.32-3.84 25.82 1.12l1.76 0.96C184 489.2 417.08 612 426.9 616.54c15.14 7.04 23.54 9.88 49.38-2.38l481.84-250.58c7.08-2.66 15.34-9.46 15.34-19.76 0-14.24-14.76-19.86-14.8-19.86-27.42-13.14-69.54-32.84-110.62-52-87.84-41.12-187.38-87.7-231.08-110.62-37.76-19.74-68.14-3.08-73.56 0.26l-10.5 5.2C336.16 264 72.82 394.42 57.82 403.54c-26.8 16.32-43.42 48.88-45.58 89.24-3.34 64 29.28 130.84 76 155.3l284.24 146.58a90.54 90.54 0 0 0 180.14-11.58l313.08-169.7a90.56 90.56 0 1 0 55.72-162" fill="#B5B5B6" p-id="7602"></path></svg>